<svg width="1602" height="1403" viewBox="0 0 1602 1403" fill="none" xmlns="http://www.w3.org/2000/svg">
<g clip-path="url(#clip0_104_35)">
<g filter="url(#filter0_i_104_35)">
<path d="M644.483 219.568C644.834 219.217 645.01 219.042 645.216 218.917C645.39 218.811 645.58 218.732 645.779 218.684C646.013 218.627 646.261 218.627 646.758 218.627H744.471C744.924 218.627 745.15 218.627 745.365 218.579C745.547 218.538 745.723 218.472 745.887 218.382C746.081 218.277 746.251 218.128 746.591 217.831L768.975 198.255C769.881 197.462 770.334 197.066 770.831 196.955C771.248 196.861 771.685 196.904 772.077 197.077C772.542 197.282 772.909 197.759 773.645 198.713L774.197 199.429C774.84 200.263 775.161 200.68 775.255 201.131C775.334 201.512 775.3 201.907 775.158 202.268C774.989 202.697 774.601 203.053 773.826 203.766L714.669 258.151C714.324 258.468 714.151 258.626 713.953 258.739C713.785 258.835 713.603 258.905 713.415 258.949C713.193 259 712.958 259 712.489 259H612.781C610.315 259 609.081 259 608.516 258.505C608.046 258.094 607.795 257.488 607.837 256.866C607.888 256.116 608.76 255.244 610.505 253.502L644.483 219.568Z" fill="url(#paint0_linear_104_35)"/>
</g>
<g filter="url(#filter1_i_104_35)">
<path d="M1488.44 720.123C1487.5 719.541 1487.21 718.308 1487.79 717.369L1499.39 698.672C1499.97 697.733 1501.2 697.444 1502.14 698.026L1525.09 712.255L1511.39 734.351L1488.44 720.123Z" fill="black"/>
<path d="M1535.01 676.588C1534.28 680.263 1530.78 688.433 1517.93 708.961C1517.63 709.431 1517.77 710.068 1518.24 710.36L1523.18 713.427C1523.65 713.718 1524.28 713.563 1524.57 713.093C1537.53 692.032 1540.96 681.043 1541.45 678.571C1541.52 678.23 1541.32 677.912 1541.03 677.719L1537.41 675.3C1536.61 674.767 1535.2 675.645 1535.01 676.588Z" fill="black"/>
<path d="M1483.32 759.948C1486.29 757.658 1492.05 750.888 1504.73 730.252C1505.02 729.78 1505.65 729.615 1506.12 729.907L1511.06 732.975C1511.53 733.266 1511.67 733.893 1511.38 734.361C1498.28 755.341 1489.96 763.292 1487.96 764.836C1487.69 765.05 1487.32 765.013 1487.01 764.839L1483.24 762.668C1482.4 762.189 1482.56 760.535 1483.32 759.948Z" fill="black"/>
</g>
<g filter="url(#filter2_i_104_35)">
<path d="M727.033 242.12C723.278 239.792 722.121 234.86 724.45 231.105C726.778 227.35 731.71 226.194 735.465 228.522L1512.25 710.18C1513.19 710.762 1513.48 711.995 1512.9 712.934L1506.58 723.132C1505.99 724.071 1504.76 724.36 1503.82 723.778L727.033 242.12Z" fill="black"/>
</g>
<g filter="url(#filter3_di_104_35)">
<circle cx="731.884" cy="234.884" r="5" transform="rotate(-58.1985 731.884 234.884)" fill="black"/>
</g>
<g filter="url(#filter4_di_104_35)">
<circle cx="1499.51" cy="711.508" r="4" transform="rotate(-58.1985 1499.51 711.508)" fill="black"/>
</g>
<path d="M713.354 258.354L611.207 360.5" stroke="#1F1F1F"/>
<g filter="url(#filter5_i_104_35)">
<path d="M745.982 1053.69C746.763 1052.9 748.03 1052.9 748.811 1053.69L768.61 1073.48C769.391 1074.27 769.391 1075.53 768.61 1076.31L745.275 1099.65L722.648 1077.02L745.982 1053.69Z" fill="black"/>
<path d="M791.999 1118.13C787.166 1116.92 777.592 1111.07 755.898 1089.07C755.508 1088.67 754.854 1088.65 754.461 1089.05L745.275 1098.23C744.885 1098.62 744.895 1099.27 745.287 1099.66C768.269 1122.46 782.306 1128 784.821 1128.51C785.086 1128.57 785.34 1128.42 785.535 1128.23L793.109 1120.98C793.872 1120.25 793.024 1118.39 791.999 1118.13Z" fill="black"/>
<path d="M704.161 1030.3C705.371 1035.13 711.229 1044.7 733.226 1066.4C733.622 1066.79 733.641 1067.44 733.248 1067.83L724.062 1077.02C723.671 1077.41 723.028 1077.4 722.639 1077.01C699.831 1054.03 694.299 1039.99 693.78 1037.47C693.725 1037.21 693.878 1036.96 694.065 1036.76L701.316 1029.19C702.047 1028.42 703.904 1029.27 704.161 1030.3Z" fill="black"/>
</g>
<g filter="url(#filter6_i_104_35)">
<path d="M1251.69 556.464C1255.59 552.559 1261.93 552.559 1265.83 556.464C1269.74 560.37 1269.74 566.701 1265.83 570.607L752.346 1084.09C751.565 1084.87 750.299 1084.87 749.517 1084.09L738.204 1072.78C737.423 1072 737.423 1070.73 738.204 1069.95L1251.69 556.464Z" fill="black"/>
</g>
<g filter="url(#filter7_i_104_35)">
<circle cx="754.467" cy="1067.83" r="5" transform="rotate(45 754.467 1067.83)" fill="black"/>
</g>
<g filter="url(#filter8_di_104_35)">
<circle cx="1258.64" cy="563.452" r="8" transform="rotate(45 1258.64 563.452)" fill="black"/>
</g>
<g filter="url(#filter9_iii_104_35)">
<path d="M812 1197C812 1195.9 812.895 1195 814 1195H966C967.105 1195 968 1195.9 968 1197V1306C968 1307.1 967.105 1308 966 1308H814C812.895 1308 812 1307.1 812 1306V1197Z" fill="black"/>
<path d="M812 1197C812 1195.9 812.895 1195 814 1195H966C967.105 1195 968 1195.9 968 1197V1306C968 1307.1 967.105 1308 966 1308H814C812.895 1308 812 1307.1 812 1306V1197Z" fill="url(#paint1_linear_104_35)"/>
<path d="M812 1197C812 1195.9 812.895 1195 814 1195H966C967.105 1195 968 1195.9 968 1197V1306C968 1307.1 967.105 1308 966 1308H814C812.895 1308 812 1307.1 812 1306V1197Z" fill="url(#paint2_linear_104_35)"/>
</g>
<g filter="url(#filter10_ii_104_35)">
<path d="M876 932.5C876 924.492 882.492 918 890.5 918C898.508 918 905 924.492 905 932.5V1308H876V932.5Z" fill="black"/>
</g>
<g filter="url(#filter11_i_104_35)">
<circle cx="890" cy="1222" r="5" fill="black"/>
</g>
<g filter="url(#filter12_i_104_35)">
<circle cx="890" cy="1251.5" r="5" fill="black"/>
</g>
<g filter="url(#filter13_i_104_35)">
<circle cx="890" cy="1281" r="5" fill="black"/>
</g>
<g filter="url(#filter14_di_104_35)">
<circle cx="890" cy="932" r="8" fill="black"/>
</g>
<g filter="url(#filter15_iii_104_35)">
<path d="M839 1192C839 1191.45 839.448 1191 840 1191H853C853.552 1191 854 1191.45 854 1192V1195H839V1192Z" fill="#B90000"/>
<path d="M839 1192C839 1191.45 839.448 1191 840 1191H853C853.552 1191 854 1191.45 854 1192V1195H839V1192Z" fill="url(#paint3_linear_104_35)"/>
</g>
<circle cx="610" cy="362" r="3" fill="#B90000"/>
<path d="M611 259H711.5L1836.5 1131.5L2182 1430.5H10V839L611 259Z" fill="url(#paint4_radial_104_35)"/>
<g filter="url(#filter16_f_104_35)">
<rect width="117" height="61" transform="matrix(-1 0 0 1 817 1248)" fill="url(#paint5_radial_104_35)"/>
</g>
<g filter="url(#filter17_f_104_35)">
<rect x="964" y="1143" width="185" height="165" fill="url(#paint6_radial_104_35)"/>
</g>
<rect x="601" y="1298" width="565" height="30" fill="url(#paint7_radial_104_35)"/>
</g>
<defs>
<filter id="filter0_i_104_35" x="605.833" y="196.906" width="169.463" height="64.0939" filterUnits="userSpaceOnUse" color-interpolation-filters="sRGB">
<feFlood flood-opacity="0" result="BackgroundImageFix"/>
<feBlend mode="normal" in="SourceGraphic" in2="BackgroundImageFix" result="shape"/>
<feColorMatrix in="SourceAlpha" type="matrix" values="0 0 0 0 0 0 0 0 0 0 0 0 0 0 0 0 0 0 127 0" result="hardAlpha"/>
<feOffset dx="-2" dy="2"/>
<feGaussianBlur stdDeviation="2"/>
<feComposite in2="hardAlpha" operator="arithmetic" k2="-1" k3="1"/>
<feColorMatrix type="matrix" values="0 0 0 0 1 0 0 0 0 1 0 0 0 0 1 0 0 0 0.25 0"/>
<feBlend mode="normal" in2="shape" result="effect1_innerShadow_104_35"/>
</filter>
<filter id="filter1_i_104_35" x="1459.19" y="653.305" width="99.2529" height="129.928" filterUnits="userSpaceOnUse" color-interpolation-filters="sRGB">
<feFlood flood-opacity="0" result="BackgroundImageFix"/>
<feBlend mode="normal" in="SourceGraphic" in2="BackgroundImageFix" result="shape"/>
<feColorMatrix in="SourceAlpha" type="matrix" values="0 0 0 0 0 0 0 0 0 0 0 0 0 0 0 0 0 0 127 0" result="hardAlpha"/>
<feOffset dx="-1" dy="1"/>
<feGaussianBlur stdDeviation="1"/>
<feComposite in2="hardAlpha" operator="arithmetic" k2="-1" k3="1"/>
<feColorMatrix type="matrix" values="0 0 0 0 1 0 0 0 0 1 0 0 0 0 1 0 0 0 0.25 0"/>
<feBlend mode="normal" in2="shape" result="effect1_innerShadow_104_35"/>
</filter>
<filter id="filter2_i_104_35" x="723.248" y="227.32" width="789.953" height="498.759" filterUnits="userSpaceOnUse" color-interpolation-filters="sRGB">
<feFlood flood-opacity="0" result="BackgroundImageFix"/>
<feBlend mode="normal" in="SourceGraphic" in2="BackgroundImageFix" result="shape"/>
<feColorMatrix in="SourceAlpha" type="matrix" values="0 0 0 0 0 0 0 0 0 0 0 0 0 0 0 0 0 0 127 0" result="hardAlpha"/>
<feOffset dy="2"/>
<feGaussianBlur stdDeviation="2.5"/>
<feComposite in2="hardAlpha" operator="arithmetic" k2="-1" k3="1"/>
<feColorMatrix type="matrix" values="0 0 0 0 1 0 0 0 0 1 0 0 0 0 1 0 0 0 0.2 0"/>
<feBlend mode="normal" in2="shape" result="effect1_innerShadow_104_35"/>
</filter>
<filter id="filter3_di_104_35" x="723.884" y="226.884" width="16.001" height="16.0014" filterUnits="userSpaceOnUse" color-interpolation-filters="sRGB">
<feFlood flood-opacity="0" result="BackgroundImageFix"/>
<feColorMatrix in="SourceAlpha" type="matrix" values="0 0 0 0 0 0 0 0 0 0 0 0 0 0 0 0 0 0 127 0" result="hardAlpha"/>
<feMorphology radius="1" operator="dilate" in="SourceAlpha" result="effect1_dropShadow_104_35"/>
<feOffset/>
<feGaussianBlur stdDeviation="1"/>
<feColorMatrix type="matrix" values="0 0 0 0 0 0 0 0 0 0 0 0 0 0 0 0 0 0 1 0"/>
<feBlend mode="normal" in2="BackgroundImageFix" result="effect1_dropShadow_104_35"/>
<feBlend mode="normal" in="SourceGraphic" in2="effect1_dropShadow_104_35" result="shape"/>
<feColorMatrix in="SourceAlpha" type="matrix" values="0 0 0 0 0 0 0 0 0 0 0 0 0 0 0 0 0 0 127 0" result="hardAlpha"/>
<feMorphology radius="2" operator="dilate" in="SourceAlpha" result="effect2_innerShadow_104_35"/>
<feOffset dx="-2" dy="2"/>
<feGaussianBlur stdDeviation="2"/>
<feComposite in2="hardAlpha" operator="arithmetic" k2="-1" k3="1"/>
<feColorMatrix type="matrix" values="0 0 0 0 1 0 0 0 0 1 0 0 0 0 1 0 0 0 0.4 0"/>
<feBlend mode="normal" in2="shape" result="effect2_innerShadow_104_35"/>
</filter>
<filter id="filter4_di_104_35" x="1489.51" y="701.507" width="20.001" height="20.0011" filterUnits="userSpaceOnUse" color-interpolation-filters="sRGB">
<feFlood flood-opacity="0" result="BackgroundImageFix"/>
<feColorMatrix in="SourceAlpha" type="matrix" values="0 0 0 0 0 0 0 0 0 0 0 0 0 0 0 0 0 0 127 0" result="hardAlpha"/>
<feMorphology radius="2" operator="dilate" in="SourceAlpha" result="effect1_dropShadow_104_35"/>
<feOffset/>
<feGaussianBlur stdDeviation="2"/>
<feColorMatrix type="matrix" values="0 0 0 0 0 0 0 0 0 0 0 0 0 0 0 0 0 0 0.25 0"/>
<feBlend mode="normal" in2="BackgroundImageFix" result="effect1_dropShadow_104_35"/>
<feBlend mode="normal" in="SourceGraphic" in2="effect1_dropShadow_104_35" result="shape"/>
<feColorMatrix in="SourceAlpha" type="matrix" values="0 0 0 0 0 0 0 0 0 0 0 0 0 0 0 0 0 0 127 0" result="hardAlpha"/>
<feOffset dx="-1" dy="1"/>
<feGaussianBlur stdDeviation="1"/>
<feComposite in2="hardAlpha" operator="arithmetic" k2="-1" k3="1"/>
<feColorMatrix type="matrix" values="0 0 0 0 1 0 0 0 0 1 0 0 0 0 1 0 0 0 0.25 0"/>
<feBlend mode="normal" in2="shape" result="effect2_innerShadow_104_35"/>
</filter>
<filter id="filter5_i_104_35" x="687" y="1017.62" width="117.672" height="117.673" filterUnits="userSpaceOnUse" color-interpolation-filters="sRGB">
<feFlood flood-opacity="0" result="BackgroundImageFix"/>
<feBlend mode="normal" in="SourceGraphic" in2="BackgroundImageFix" result="shape"/>
<feColorMatrix in="SourceAlpha" type="matrix" values="0 0 0 0 0 0 0 0 0 0 0 0 0 0 0 0 0 0 127 0" result="hardAlpha"/>
<feOffset dx="-1" dy="1"/>
<feGaussianBlur stdDeviation="1"/>
<feComposite in2="hardAlpha" operator="arithmetic" k2="-1" k3="1"/>
<feColorMatrix type="matrix" values="0 0 0 0 1 0 0 0 0 1 0 0 0 0 1 0 0 0 0.25 0"/>
<feBlend mode="normal" in2="shape" result="effect1_innerShadow_104_35"/>
</filter>
<filter id="filter6_i_104_35" x="733.618" y="553.535" width="535.141" height="535.141" filterUnits="userSpaceOnUse" color-interpolation-filters="sRGB">
<feFlood flood-opacity="0" result="BackgroundImageFix"/>
<feBlend mode="normal" in="SourceGraphic" in2="BackgroundImageFix" result="shape"/>
<feColorMatrix in="SourceAlpha" type="matrix" values="0 0 0 0 0 0 0 0 0 0 0 0 0 0 0 0 0 0 127 0" result="hardAlpha"/>
<feOffset dx="-4" dy="4"/>
<feGaussianBlur stdDeviation="3"/>
<feComposite in2="hardAlpha" operator="arithmetic" k2="-1" k3="1"/>
<feColorMatrix type="matrix" values="0 0 0 0 1 0 0 0 0 1 0 0 0 0 1 0 0 0 0.25 0"/>
<feBlend mode="normal" in2="shape" result="effect1_innerShadow_104_35"/>
</filter>
<filter id="filter7_i_104_35" x="748.467" y="1062.83" width="11" height="11" filterUnits="userSpaceOnUse" color-interpolation-filters="sRGB">
<feFlood flood-opacity="0" result="BackgroundImageFix"/>
<feBlend mode="normal" in="SourceGraphic" in2="BackgroundImageFix" result="shape"/>
<feColorMatrix in="SourceAlpha" type="matrix" values="0 0 0 0 0 0 0 0 0 0 0 0 0 0 0 0 0 0 127 0" result="hardAlpha"/>
<feOffset dx="-1" dy="1"/>
<feGaussianBlur stdDeviation="2"/>
<feComposite in2="hardAlpha" operator="arithmetic" k2="-1" k3="1"/>
<feColorMatrix type="matrix" values="0 0 0 0 1 0 0 0 0 1 0 0 0 0 1 0 0 0 0.25 0"/>
<feBlend mode="normal" in2="shape" result="effect1_innerShadow_104_35"/>
</filter>
<filter id="filter8_di_104_35" x="1247.64" y="552.452" width="22" height="22" filterUnits="userSpaceOnUse" color-interpolation-filters="sRGB">
<feFlood flood-opacity="0" result="BackgroundImageFix"/>
<feColorMatrix in="SourceAlpha" type="matrix" values="0 0 0 0 0 0 0 0 0 0 0 0 0 0 0 0 0 0 127 0" result="hardAlpha"/>
<feMorphology radius="1" operator="dilate" in="SourceAlpha" result="effect1_dropShadow_104_35"/>
<feOffset/>
<feGaussianBlur stdDeviation="1"/>
<feColorMatrix type="matrix" values="0 0 0 0 0 0 0 0 0 0 0 0 0 0 0 0 0 0 1 0"/>
<feBlend mode="normal" in2="BackgroundImageFix" result="effect1_dropShadow_104_35"/>
<feBlend mode="normal" in="SourceGraphic" in2="effect1_dropShadow_104_35" result="shape"/>
<feColorMatrix in="SourceAlpha" type="matrix" values="0 0 0 0 0 0 0 0 0 0 0 0 0 0 0 0 0 0 127 0" result="hardAlpha"/>
<feMorphology radius="2" operator="dilate" in="SourceAlpha" result="effect2_innerShadow_104_35"/>
<feOffset dx="-2" dy="2"/>
<feGaussianBlur stdDeviation="2.5"/>
<feComposite in2="hardAlpha" operator="arithmetic" k2="-1" k3="1"/>
<feColorMatrix type="matrix" values="0 0 0 0 1 0 0 0 0 1 0 0 0 0 1 0 0 0 0.4 0"/>
<feBlend mode="normal" in2="shape" result="effect2_innerShadow_104_35"/>
</filter>
<filter id="filter9_iii_104_35" x="810" y="1188" width="158" height="122" filterUnits="userSpaceOnUse" color-interpolation-filters="sRGB">
<feFlood flood-opacity="0" result="BackgroundImageFix"/>
<feBlend mode="normal" in="SourceGraphic" in2="BackgroundImageFix" result="shape"/>
<feColorMatrix in="SourceAlpha" type="matrix" values="0 0 0 0 0 0 0 0 0 0 0 0 0 0 0 0 0 0 127 0" result="hardAlpha"/>
<feOffset dx="-2" dy="2"/>
<feGaussianBlur stdDeviation="3"/>
<feComposite in2="hardAlpha" operator="arithmetic" k2="-1" k3="1"/>
<feColorMatrix type="matrix" values="0 0 0 0 1 0 0 0 0 1 0 0 0 0 1 0 0 0 0.25 0"/>
<feBlend mode="normal" in2="shape" result="effect1_innerShadow_104_35"/>
<feColorMatrix in="SourceAlpha" type="matrix" values="0 0 0 0 0 0 0 0 0 0 0 0 0 0 0 0 0 0 127 0" result="hardAlpha"/>
<feOffset dy="-7"/>
<feGaussianBlur stdDeviation="7.5"/>
<feComposite in2="hardAlpha" operator="arithmetic" k2="-1" k3="1"/>
<feColorMatrix type="matrix" values="0 0 0 0 0 0 0 0 0 0 0 0 0 0 0 0 0 0 0.9 0"/>
<feBlend mode="normal" in2="effect1_innerShadow_104_35" result="effect2_innerShadow_104_35"/>
<feColorMatrix in="SourceAlpha" type="matrix" values="0 0 0 0 0 0 0 0 0 0 0 0 0 0 0 0 0 0 127 0" result="hardAlpha"/>
<feOffset dy="-2"/>
<feGaussianBlur stdDeviation="2"/>
<feComposite in2="hardAlpha" operator="arithmetic" k2="-1" k3="1"/>
<feColorMatrix type="matrix" values="0 0 0 0 0 0 0 0 0 0 0 0 0 0 0 0 0 0 0.25 0"/>
<feBlend mode="normal" in2="effect2_innerShadow_104_35" result="effect3_innerShadow_104_35"/>
</filter>
<filter id="filter10_ii_104_35" x="874" y="905" width="31" height="405" filterUnits="userSpaceOnUse" color-interpolation-filters="sRGB">
<feFlood flood-opacity="0" result="BackgroundImageFix"/>
<feBlend mode="normal" in="SourceGraphic" in2="BackgroundImageFix" result="shape"/>
<feColorMatrix in="SourceAlpha" type="matrix" values="0 0 0 0 0 0 0 0 0 0 0 0 0 0 0 0 0 0 127 0" result="hardAlpha"/>
<feOffset dx="-2" dy="2"/>
<feGaussianBlur stdDeviation="2"/>
<feComposite in2="hardAlpha" operator="arithmetic" k2="-1" k3="1"/>
<feColorMatrix type="matrix" values="0 0 0 0 1 0 0 0 0 1 0 0 0 0 1 0 0 0 0.25 0"/>
<feBlend mode="normal" in2="shape" result="effect1_innerShadow_104_35"/>
<feColorMatrix in="SourceAlpha" type="matrix" values="0 0 0 0 0 0 0 0 0 0 0 0 0 0 0 0 0 0 127 0" result="hardAlpha"/>
<feOffset dy="-21"/>
<feGaussianBlur stdDeviation="6.5"/>
<feComposite in2="hardAlpha" operator="arithmetic" k2="-1" k3="1"/>
<feColorMatrix type="matrix" values="0 0 0 0 0 0 0 0 0 0 0 0 0 0 0 0 0 0 0.8 0"/>
<feBlend mode="normal" in2="effect1_innerShadow_104_35" result="effect2_innerShadow_104_35"/>
</filter>
<filter id="filter11_i_104_35" x="884" y="1217" width="11" height="10" filterUnits="userSpaceOnUse" color-interpolation-filters="sRGB">
<feFlood flood-opacity="0" result="BackgroundImageFix"/>
<feBlend mode="normal" in="SourceGraphic" in2="BackgroundImageFix" result="shape"/>
<feColorMatrix in="SourceAlpha" type="matrix" values="0 0 0 0 0 0 0 0 0 0 0 0 0 0 0 0 0 0 127 0" result="hardAlpha"/>
<feOffset dx="-1"/>
<feGaussianBlur stdDeviation="2"/>
<feComposite in2="hardAlpha" operator="arithmetic" k2="-1" k3="1"/>
<feColorMatrix type="matrix" values="0 0 0 0 1 0 0 0 0 1 0 0 0 0 1 0 0 0 0.25 0"/>
<feBlend mode="normal" in2="shape" result="effect1_innerShadow_104_35"/>
</filter>
<filter id="filter12_i_104_35" x="884" y="1246.5" width="11" height="10" filterUnits="userSpaceOnUse" color-interpolation-filters="sRGB">
<feFlood flood-opacity="0" result="BackgroundImageFix"/>
<feBlend mode="normal" in="SourceGraphic" in2="BackgroundImageFix" result="shape"/>
<feColorMatrix in="SourceAlpha" type="matrix" values="0 0 0 0 0 0 0 0 0 0 0 0 0 0 0 0 0 0 127 0" result="hardAlpha"/>
<feOffset dx="-1"/>
<feGaussianBlur stdDeviation="2"/>
<feComposite in2="hardAlpha" operator="arithmetic" k2="-1" k3="1"/>
<feColorMatrix type="matrix" values="0 0 0 0 1 0 0 0 0 1 0 0 0 0 1 0 0 0 0.25 0"/>
<feBlend mode="normal" in2="shape" result="effect1_innerShadow_104_35"/>
</filter>
<filter id="filter13_i_104_35" x="884" y="1276" width="11" height="10" filterUnits="userSpaceOnUse" color-interpolation-filters="sRGB">
<feFlood flood-opacity="0" result="BackgroundImageFix"/>
<feBlend mode="normal" in="SourceGraphic" in2="BackgroundImageFix" result="shape"/>
<feColorMatrix in="SourceAlpha" type="matrix" values="0 0 0 0 0 0 0 0 0 0 0 0 0 0 0 0 0 0 127 0" result="hardAlpha"/>
<feOffset dx="-1"/>
<feGaussianBlur stdDeviation="2"/>
<feComposite in2="hardAlpha" operator="arithmetic" k2="-1" k3="1"/>
<feColorMatrix type="matrix" values="0 0 0 0 1 0 0 0 0 1 0 0 0 0 1 0 0 0 0.25 0"/>
<feBlend mode="normal" in2="shape" result="effect1_innerShadow_104_35"/>
</filter>
<filter id="filter14_di_104_35" x="879" y="921" width="22" height="22" filterUnits="userSpaceOnUse" color-interpolation-filters="sRGB">
<feFlood flood-opacity="0" result="BackgroundImageFix"/>
<feColorMatrix in="SourceAlpha" type="matrix" values="0 0 0 0 0 0 0 0 0 0 0 0 0 0 0 0 0 0 127 0" result="hardAlpha"/>
<feMorphology radius="1" operator="dilate" in="SourceAlpha" result="effect1_dropShadow_104_35"/>
<feOffset/>
<feGaussianBlur stdDeviation="1"/>
<feColorMatrix type="matrix" values="0 0 0 0 0 0 0 0 0 0 0 0 0 0 0 0 0 0 1 0"/>
<feBlend mode="normal" in2="BackgroundImageFix" result="effect1_dropShadow_104_35"/>
<feBlend mode="normal" in="SourceGraphic" in2="effect1_dropShadow_104_35" result="shape"/>
<feColorMatrix in="SourceAlpha" type="matrix" values="0 0 0 0 0 0 0 0 0 0 0 0 0 0 0 0 0 0 127 0" result="hardAlpha"/>
<feMorphology radius="2" operator="dilate" in="SourceAlpha" result="effect2_innerShadow_104_35"/>
<feOffset dx="-2" dy="2"/>
<feGaussianBlur stdDeviation="2.5"/>
<feComposite in2="hardAlpha" operator="arithmetic" k2="-1" k3="1"/>
<feColorMatrix type="matrix" values="0 0 0 0 1 0 0 0 0 1 0 0 0 0 1 0 0 0 0.4 0"/>
<feBlend mode="normal" in2="shape" result="effect2_innerShadow_104_35"/>
</filter>
<filter id="filter15_iii_104_35" x="839" y="1190" width="15" height="6" filterUnits="userSpaceOnUse" color-interpolation-filters="sRGB">
<feFlood flood-opacity="0" result="BackgroundImageFix"/>
<feBlend mode="normal" in="SourceGraphic" in2="BackgroundImageFix" result="shape"/>
<feColorMatrix in="SourceAlpha" type="matrix" values="0 0 0 0 0 0 0 0 0 0 0 0 0 0 0 0 0 0 127 0" result="hardAlpha"/>
<feOffset dy="-1"/>
<feGaussianBlur stdDeviation="2"/>
<feComposite in2="hardAlpha" operator="arithmetic" k2="-1" k3="1"/>
<feColorMatrix type="matrix" values="0 0 0 0 0 0 0 0 0 0 0 0 0 0 0 0 0 0 0.25 0"/>
<feBlend mode="normal" in2="shape" result="effect1_innerShadow_104_35"/>
<feColorMatrix in="SourceAlpha" type="matrix" values="0 0 0 0 0 0 0 0 0 0 0 0 0 0 0 0 0 0 127 0" result="hardAlpha"/>
<feOffset dy="1"/>
<feGaussianBlur stdDeviation="3.5"/>
<feComposite in2="hardAlpha" operator="arithmetic" k2="-1" k3="1"/>
<feColorMatrix type="matrix" values="0 0 0 0 1 0 0 0 0 1 0 0 0 0 1 0 0 0 0.1 0"/>
<feBlend mode="normal" in2="effect1_innerShadow_104_35" result="effect2_innerShadow_104_35"/>
<feColorMatrix in="SourceAlpha" type="matrix" values="0 0 0 0 0 0 0 0 0 0 0 0 0 0 0 0 0 0 127 0" result="hardAlpha"/>
<feOffset dy="1"/>
<feGaussianBlur stdDeviation="0.5"/>
<feComposite in2="hardAlpha" operator="arithmetic" k2="-1" k3="1"/>
<feColorMatrix type="matrix" values="0 0 0 0 0.72549 0 0 0 0 0 0 0 0 0 0 0 0 0 1 0"/>
<feBlend mode="normal" in2="effect2_innerShadow_104_35" result="effect3_innerShadow_104_35"/>
</filter>
<filter id="filter16_f_104_35" x="696" y="1244" width="125" height="69" filterUnits="userSpaceOnUse" color-interpolation-filters="sRGB">
<feFlood flood-opacity="0" result="BackgroundImageFix"/>
<feBlend mode="normal" in="SourceGraphic" in2="BackgroundImageFix" result="shape"/>
<feGaussianBlur stdDeviation="2" result="effect1_foregroundBlur_104_35"/>
</filter>
<filter id="filter17_f_104_35" x="960" y="1139" width="193" height="173" filterUnits="userSpaceOnUse" color-interpolation-filters="sRGB">
<feFlood flood-opacity="0" result="BackgroundImageFix"/>
<feBlend mode="normal" in="SourceGraphic" in2="BackgroundImageFix" result="shape"/>
<feGaussianBlur stdDeviation="2" result="effect1_foregroundBlur_104_35"/>
</filter>
<linearGradient id="paint0_linear_104_35" x1="690.5" y1="196" x2="690.5" y2="259" gradientUnits="userSpaceOnUse">
<stop stop-color="#353535"/>
<stop offset="1"/>
</linearGradient>
<linearGradient id="paint1_linear_104_35" x1="965" y1="1238" x2="815" y2="1238" gradientUnits="userSpaceOnUse">
<stop stop-color="white" stop-opacity="0.08"/>
<stop offset="1" stop-opacity="0"/>
</linearGradient>
<linearGradient id="paint2_linear_104_35" x1="908" y1="1195" x2="841" y2="1311" gradientUnits="userSpaceOnUse">
<stop stop-color="white" stop-opacity="0.06"/>
<stop offset="1" stop-opacity="0"/>
</linearGradient>
<linearGradient id="paint3_linear_104_35" x1="846.5" y1="1191" x2="846.5" y2="1195" gradientUnits="userSpaceOnUse">
<stop stop-opacity="0"/>
<stop offset="0.859375" stop-opacity="0.6"/>
</linearGradient>
<radialGradient id="paint4_radial_104_35" cx="0" cy="0" r="1" gradientUnits="userSpaceOnUse" gradientTransform="translate(664 265) rotate(85.0139) scale(759.374 755.845)">
<stop stop-color="white"/>
<stop offset="0.291667" stop-color="white" stop-opacity="0.37"/>
<stop offset="1" stop-color="white" stop-opacity="0"/>
</radialGradient>
<radialGradient id="paint5_radial_104_35" cx="0" cy="0" r="1" gradientUnits="userSpaceOnUse" gradientTransform="translate(2.31225 58.3009) rotate(-81.68) scale(43.6978 118.377)">
<stop stop-opacity="0.3"/>
<stop offset="1" stop-color="#EAEAEA" stop-opacity="0"/>
</radialGradient>
<radialGradient id="paint6_radial_104_35" cx="0" cy="0" r="1" gradientUnits="userSpaceOnUse" gradientTransform="translate(967.656 1300.7) rotate(-85.1138) scale(117.382 188.48)">
<stop stop-opacity="0.25"/>
<stop offset="1" stop-color="#EAEAEA" stop-opacity="0"/>
</radialGradient>
<radialGradient id="paint7_radial_104_35" cx="0" cy="0" r="1" gradientUnits="userSpaceOnUse" gradientTransform="translate(883.5 1309) rotate(89.9993) scale(3 215.353)">
<stop stop-opacity="0.35"/>
<stop offset="0.567708" stop-opacity="0.04"/>
<stop offset="0.765625" stop-opacity="0"/>
</radialGradient>
<clipPath id="clip0_104_35">
<rect width="1602" height="1403" fill="white"/>
</clipPath>
</defs>
</svg>
